<svg xmlns="http://www.w3.org/2000/svg" viewBox="0 0 1360 1180" font-family="'Segoe UI', system-ui, -apple-system, sans-serif">
  <defs>
    <linearGradient id="bg" x1="0" y1="0" x2="0" y2="1">
      <stop offset="0%" stop-color="#0a0e1a"/>
      <stop offset="100%" stop-color="#0d1225"/>
    </linearGradient>
    <linearGradient id="cardBg" x1="0" y1="0" x2="0" y2="1">
      <stop offset="0%" stop-color="#141b2d"/>
      <stop offset="100%" stop-color="#111827"/>
    </linearGradient>
    <linearGradient id="govGrad" x1="0" y1="0" x2="1" y2="1">
      <stop offset="0%" stop-color="#0ea5e9"/>
      <stop offset="100%" stop-color="#0284c7"/>
    </linearGradient>
    <linearGradient id="atlasGrad" x1="0" y1="0" x2="1" y2="1">
      <stop offset="0%" stop-color="#10b981"/>
      <stop offset="100%" stop-color="#059669"/>
    </linearGradient>
    <linearGradient id="conductorGrad" x1="0" y1="0" x2="1" y2="1">
      <stop offset="0%" stop-color="#8b5cf6"/>
      <stop offset="100%" stop-color="#6d28d9"/>
    </linearGradient>
    <linearGradient id="forgeGrad" x1="0" y1="0" x2="1" y2="1">
      <stop offset="0%" stop-color="#f59e0b"/>
      <stop offset="100%" stop-color="#d97706"/>
    </linearGradient>
    <linearGradient id="hermesGrad" x1="0" y1="0" x2="1" y2="1">
      <stop offset="0%" stop-color="#06b6d4"/>
      <stop offset="100%" stop-color="#0891b2"/>
    </linearGradient>
    <linearGradient id="boltGrad" x1="0" y1="0" x2="1" y2="1">
      <stop offset="0%" stop-color="#6366f1"/>
      <stop offset="100%" stop-color="#4f46e5"/>
    </linearGradient>
    <linearGradient id="scoutGrad" x1="0" y1="0" x2="1" y2="1">
      <stop offset="0%" stop-color="#14b8a6"/>
      <stop offset="100%" stop-color="#0d9488"/>
    </linearGradient>
    <linearGradient id="courierGrad" x1="0" y1="0" x2="1" y2="1">
      <stop offset="0%" stop-color="#64748b"/>
      <stop offset="100%" stop-color="#475569"/>
    </linearGradient>
    <linearGradient id="sentinelGrad" x1="0" y1="0" x2="1" y2="1">
      <stop offset="0%" stop-color="#ef4444"/>
      <stop offset="100%" stop-color="#dc2626"/>
    </linearGradient>
    <linearGradient id="accent" x1="0" y1="0" x2="1" y2="0">
      <stop offset="0%" stop-color="#10b981"/>
      <stop offset="100%" stop-color="#06b6d4"/>
    </linearGradient>
    <filter id="shadow">
      <feDropShadow dx="0" dy="2" stdDeviation="5" flood-color="#000" flood-opacity="0.5"/>
    </filter>
    <filter id="glowBlue">
      <feGaussianBlur stdDeviation="4" result="blur"/>
      <feComposite in="SourceGraphic" in2="blur" operator="over"/>
    </filter>
  </defs>

  <!-- Background -->
  <rect width="1360" height="1180" fill="url(#bg)"/>

  <!-- Subtle grid -->
  <pattern id="grid" width="40" height="40" patternUnits="userSpaceOnUse">
    <path d="M 40 0 L 0 0 0 40" fill="none" stroke="#1a2235" stroke-width="0.5"/>
  </pattern>
  <rect width="1360" height="1180" fill="url(#grid)" opacity="0.4"/>

  <!-- Title -->
  <text x="680" y="48" text-anchor="middle" fill="#e2e8f0" font-size="26" font-weight="700" letter-spacing="1">OpenClaw Governor Architecture</text>
  <text x="680" y="72" text-anchor="middle" fill="#64748b" font-size="13" letter-spacing="2">MULTI-AGENT ORCHESTRATION · SECURITY BY ISOLATION · LOCAL + CLOUD INFERENCE</text>
  <line x1="430" y1="84" x2="930" y2="84" stroke="url(#accent)" stroke-width="2" opacity="0.6"/>

  <!-- TIER LABELS (left margin) -->
  <text x="30" y="175" fill="#334155" font-size="10" font-weight="600" letter-spacing="3" transform="rotate(-90, 30, 175)">GOVERNOR</text>
  <text x="30" y="355" fill="#334155" font-size="10" font-weight="600" letter-spacing="3" transform="rotate(-90, 30, 355)">ORCHESTRATOR</text>
  <text x="30" y="615" fill="#334155" font-size="10" font-weight="600" letter-spacing="3" transform="rotate(-90, 30, 615)">DIRECTORS</text>
  <text x="30" y="870" fill="#334155" font-size="10" font-weight="600" letter-spacing="3" transform="rotate(-90, 30, 870)">WORKERS</text>

  <!-- Tier separator lines -->
  <line x1="60" y1="258" x2="1310" y2="258" stroke="#1e293b" stroke-width="1" stroke-dasharray="6,4"/>
  <line x1="60" y1="500" x2="1310" y2="500" stroke="#1e293b" stroke-width="1" stroke-dasharray="6,4"/>
  <line x1="60" y1="756" x2="1310" y2="756" stroke="#1e293b" stroke-width="1" stroke-dasharray="6,4"/>

  <!-- ===== ZONE BOUNDARIES ===== -->

  <!-- Governor Zone (outside OpenClaw) -->
  <rect x="470" y="90" width="420" height="155" rx="18" fill="none" stroke="#0ea5e9" stroke-width="2" stroke-dasharray="8,4" opacity="0.3"/>
  <text x="880" y="108" text-anchor="end" fill="#0ea5e9" font-size="9" font-weight="600" letter-spacing="2" opacity="0.5">GOVERNOR ZONE — SEPARATE MACHINE</text>

  <!-- OpenClaw Zone (all agents) -->
  <rect x="50" y="268" width="1200" height="790" rx="20" fill="#0f1729" opacity="0.5"/>
  <rect x="50" y="268" width="1200" height="790" rx="20" fill="none" stroke="#10b981" stroke-width="2.5" stroke-dasharray="10,5" opacity="0.35"/>
  <text x="1240" y="290" text-anchor="end" fill="#10b981" font-size="10" font-weight="700" letter-spacing="3" opacity="0.5">OPENCLAW FLEET — TARGET MACHINE</text>

  <!-- ===== CONNECTION LINES (behind cards) ===== -->

  <!-- Governor → Atlas (SSH — crosses zone boundary) -->
  <line x1="680" y1="226" x2="680" y2="268" stroke="#0ea5e9" stroke-width="2.5" stroke-dasharray="8,4" opacity="0.7"/>
  <line x1="680" y1="268" x2="680" y2="302" stroke="#0ea5e9" stroke-width="2.5" stroke-dasharray="8,4" opacity="0.7"/>
  <!-- SSH boundary crossing indicator -->
  <rect x="655" y="258" width="50" height="20" rx="6" fill="#0a0e1a" stroke="#0ea5e9" stroke-width="1.5" opacity="0.9"/>
  <text x="680" y="272" text-anchor="middle" fill="#0ea5e9" font-size="9" font-weight="700">SSH</text>

  <!-- Atlas → Conductor (spawn solid) -->
  <path d="M 590 458 Q 430 480 370 526" fill="none" stroke="#8b5cf6" stroke-width="1.5" opacity="0.4"/>
  <!-- Atlas → Forge (spawn solid) -->
  <path d="M 640 458 Q 640 480 680 526" fill="none" stroke="#f59e0b" stroke-width="1.5" opacity="0.4"/>
  <!-- Atlas → Hermes (spawn solid) -->
  <path d="M 730 458 Q 850 480 970 526" fill="none" stroke="#06b6d4" stroke-width="1.5" opacity="0.4"/>

  <!-- Conductor → Bolt (solid) -->
  <path d="M 290 714 Q 250 730 250 782" fill="none" stroke="#6366f1" stroke-width="1.2" opacity="0.35"/>
  <!-- Conductor → Scout -->
  <path d="M 390 714 Q 470 730 530 782" fill="none" stroke="#14b8a6" stroke-width="1.2" opacity="0.35"/>

  <!-- Forge → Bolt (solid) -->
  <path d="M 650 714 Q 470 730 290 782" fill="none" stroke="#6366f1" stroke-width="1.2" opacity="0.3"/>
  <!-- Forge → Scout -->
  <path d="M 710 714 Q 630 730 580 782" fill="none" stroke="#14b8a6" stroke-width="1.2" opacity="0.3"/>

  <!-- Escalate back lines (dotted, upward) — agents → Atlas -->
  <path d="M 240 526 Q 240 490 630 440" fill="none" stroke="#10b981" stroke-width="1" stroke-dasharray="3,4" opacity="0.25"/>
  <path d="M 730 526 Q 730 490 670 440" fill="none" stroke="#10b981" stroke-width="1" stroke-dasharray="3,4" opacity="0.25"/>
  <path d="M 1010 526 Q 910 490 700 440" fill="none" stroke="#10b981" stroke-width="1" stroke-dasharray="3,4" opacity="0.25"/>

  <!-- ===== GOVERNOR TIER ===== -->
  <g filter="url(#shadow)">
    <rect x="510" y="100" width="340" height="130" rx="14" fill="#0c1a2e" stroke="#0ea5e9" stroke-width="3" opacity="0.98" filter="url(#glowBlue)"/>

    <!-- Hexagon icon -->
    <polygon points="540,155 560,130 600,130 620,155 600,180 560,180" fill="url(#govGrad)" opacity="0.9"/>
    <text x="580" y="159" text-anchor="middle" fill="#fff" font-size="10" font-weight="700">GOV</text>

    <text x="638" y="145" fill="#0ea5e9" font-size="12" font-weight="700" letter-spacing="1">GOVERNOR</text>
    <text x="638" y="162" fill="#94a3b8" font-size="11">Any coding agent — separate machine</text>

    <!-- Badge row -->
    <rect x="638" y="170" width="110" height="20" rx="10" fill="#0ea5e9" opacity="0.12"/>
    <text x="693" y="184" text-anchor="middle" fill="#0ea5e9" font-size="10" font-weight="600">Oversight Layer</text>
    <rect x="756" y="170" width="75" height="20" rx="10" fill="#1e293b"/>
    <text x="793" y="184" text-anchor="middle" fill="#64748b" font-size="10">No Exec</text>

    <text x="540" y="214" fill="#64748b" font-size="10">Monitors agents · Writes rules · Delegates never executes · Sees everything</text>
  </g>

  <!-- ===== TIER 1: ATLAS (Orchestrator) ===== -->
  <g filter="url(#shadow)">
    <rect x="440" y="288" width="480" height="176" rx="16" fill="url(#cardBg)" stroke="#10b981" stroke-width="2.5" opacity="0.95"/>

    <!-- Hexagon icon -->
    <polygon points="474,350 496,323 540,323 562,350 540,377 496,377" fill="url(#atlasGrad)" opacity="0.9"/>
    <text x="518" y="355" text-anchor="middle" fill="#fff" font-size="12" font-weight="700">ATLAS</text>

    <text x="580" y="342" fill="#10b981" font-size="13" font-weight="700" letter-spacing="1">ORCHESTRATOR</text>
    <text x="580" y="360" fill="#94a3b8" font-size="11">User-facing coordinator. Delegates to directors. Synthesizes reports.</text>
    <text x="580" y="376" fill="#64748b" font-size="10.5" font-style="italic">Never does domain work directly.</text>

    <!-- Model badge -->
    <rect x="580" y="384" width="125" height="20" rx="10" fill="#10b981" opacity="0.15"/>
    <text x="642" y="398" text-anchor="middle" fill="#10b981" font-size="10" font-weight="600">{{PRIMARY_MODEL}} (cloud)</text>
    <rect x="712" y="384" width="60" height="20" rx="10" fill="#1e293b"/>
    <text x="742" y="398" text-anchor="middle" fill="#60a5fa" font-size="10">Cloud</text>

    <!-- Tools row -->
    <text x="465" y="424" fill="#475569" font-size="9" font-weight="600" letter-spacing="2">TOOLS</text>
    <rect x="465" y="432" width="82" height="18" rx="5" fill="#1e293b"/>
    <text x="506" y="445" text-anchor="middle" fill="#64748b" font-size="9">Notify Channel</text>
    <rect x="553" y="432" width="58" height="18" rx="5" fill="#1e293b"/>
    <text x="582" y="445" text-anchor="middle" fill="#64748b" font-size="9">Canvas</text>
    <rect x="617" y="432" width="55" height="18" rx="5" fill="#1e293b"/>
    <text x="644" y="445" text-anchor="middle" fill="#64748b" font-size="9">Spawn</text>
    <rect x="678" y="432" width="42" height="18" rx="5" fill="#1e293b"/>
    <text x="699" y="445" text-anchor="middle" fill="#64748b" font-size="9">TTS</text>
    <rect x="726" y="432" width="62" height="18" rx="5" fill="#1e293b"/>
    <text x="757" y="445" text-anchor="middle" fill="#64748b" font-size="9">Browser</text>
    <rect x="794" y="432" width="62" height="18" rx="5" fill="#1e293b"/>
    <text x="825" y="445" text-anchor="middle" fill="#64748b" font-size="9">Memory</text>

    <!-- Tier 1 label inside -->
    <rect x="814" y="296" width="90" height="20" rx="6" fill="#10b981" opacity="0.1"/>
    <text x="859" y="310" text-anchor="middle" fill="#10b981" font-size="9" font-weight="700" letter-spacing="1">TIER 1</text>
  </g>

  <!-- ===== TIER 2: DIRECTORS ===== -->

  <!-- Conductor (pm) -->
  <g filter="url(#shadow)">
    <rect x="68" y="526" width="300" height="196" rx="14" fill="url(#cardBg)" stroke="#8b5cf6" stroke-width="2.5" opacity="0.9"/>
    <polygon points="88,578 108,553 148,553 168,578 148,603 108,603" fill="url(#conductorGrad)" opacity="0.9"/>
    <text x="128" y="583" text-anchor="middle" fill="#fff" font-size="9" font-weight="700">CONDUCTOR</text>
    <text x="184" y="570" fill="#8b5cf6" font-size="10" font-weight="700" letter-spacing="1">PROJECT MANAGER</text>
    <rect x="184" y="576" width="115" height="18" rx="9" fill="#8b5cf6" opacity="0.15"/>
    <text x="241" y="589" text-anchor="middle" fill="#8b5cf6" font-size="10">{{PRIMARY_MODEL}} (cloud)</text>

    <rect x="300" y="576" width="55" height="18" rx="9" fill="#1e293b"/>
    <text x="327" y="589" text-anchor="middle" fill="#60a5fa" font-size="9">Cloud</text>

    <!-- Domain badge -->
    <rect x="88" y="612" width="155" height="16" rx="5" fill="#8b5cf6" opacity="0.08"/>
    <text x="165" y="624" text-anchor="middle" fill="#8b5cf6" font-size="9" font-weight="600">PROJECT METADATA ONLY</text>

    <text x="88" y="644" fill="#94a3b8" font-size="10.5">Scans project state, prioritizes work,</text>
    <text x="88" y="658" fill="#94a3b8" font-size="10.5">delegates to workers. Never executes.</text>

    <text x="88" y="678" fill="#475569" font-size="9" font-weight="600" letter-spacing="1">TOOLS</text>
    <rect x="88" y="684" width="50" height="16" rx="4" fill="#1e293b"/>
    <text x="113" y="696" text-anchor="middle" fill="#64748b" font-size="9">Spawn</text>
    <rect x="144" y="684" width="58" height="16" rx="4" fill="#1e293b"/>
    <text x="173" y="696" text-anchor="middle" fill="#64748b" font-size="9">Browser</text>
    <rect x="208" y="684" width="55" height="16" rx="4" fill="#1e293b"/>
    <text x="235" y="696" text-anchor="middle" fill="#64748b" font-size="9">Memory</text>

    <!-- Tier 2 label -->
    <rect x="299" y="534" width="60" height="18" rx="5" fill="#8b5cf6" opacity="0.1"/>
    <text x="329" y="547" text-anchor="middle" fill="#8b5cf6" font-size="9" font-weight="700" letter-spacing="1">TIER 2</text>
  </g>

  <!-- Forge (engineer) -->
  <g filter="url(#shadow)">
    <rect x="395" y="526" width="300" height="196" rx="14" fill="url(#cardBg)" stroke="#f59e0b" stroke-width="2.5" opacity="0.9"/>
    <polygon points="415,578 435,553 475,553 495,578 475,603 435,603" fill="url(#forgeGrad)" opacity="0.9"/>
    <text x="455" y="583" text-anchor="middle" fill="#fff" font-size="10" font-weight="700">FORGE</text>
    <text x="511" y="570" fill="#f59e0b" font-size="10" font-weight="700" letter-spacing="1">SENIOR ENGINEER</text>
    <rect x="511" y="576" width="115" height="18" rx="9" fill="#f59e0b" opacity="0.15"/>
    <text x="568" y="589" text-anchor="middle" fill="#f59e0b" font-size="10">{{PRIMARY_MODEL}} (cloud)</text>
    <rect x="630" y="576" width="55" height="18" rx="9" fill="#1e293b"/>
    <text x="657" y="589" text-anchor="middle" fill="#60a5fa" font-size="9">Cloud</text>

    <!-- Domain badge -->
    <rect x="415" y="612" width="100" height="16" rx="5" fill="#f59e0b" opacity="0.08"/>
    <text x="465" y="624" text-anchor="middle" fill="#f59e0b" font-size="9" font-weight="600">CODE DOMAIN</text>

    <text x="415" y="644" fill="#94a3b8" font-size="10.5">Plans, builds, fixes, ships code.</text>
    <text x="415" y="658" fill="#94a3b8" font-size="10.5">No email, no file storage.</text>

    <text x="415" y="678" fill="#475569" font-size="9" font-weight="600" letter-spacing="1">TOOLS</text>
    <rect x="415" y="684" width="50" height="16" rx="4" fill="#1e293b"/>
    <text x="440" y="696" text-anchor="middle" fill="#64748b" font-size="9">Coding</text>
    <rect x="471" y="684" width="42" height="16" rx="4" fill="#1e293b"/>
    <text x="492" y="696" text-anchor="middle" fill="#64748b" font-size="9">Exec</text>
    <rect x="519" y="684" width="38" height="16" rx="4" fill="#1e293b"/>
    <text x="538" y="696" text-anchor="middle" fill="#64748b" font-size="9">Git</text>
    <rect x="563" y="684" width="50" height="16" rx="4" fill="#1e293b"/>
    <text x="588" y="696" text-anchor="middle" fill="#64748b" font-size="9">Spawn</text>
  </g>

  <!-- Hermes (mail) -->
  <g filter="url(#shadow)">
    <rect x="722" y="526" width="300" height="196" rx="14" fill="url(#cardBg)" stroke="#06b6d4" stroke-width="2.5" opacity="0.9"/>
    <polygon points="742,578 762,553 802,553 822,578 802,603 762,603" fill="url(#hermesGrad)" opacity="0.9"/>
    <text x="782" y="583" text-anchor="middle" fill="#fff" font-size="10" font-weight="700">HERMES</text>
    <text x="838" y="570" fill="#06b6d4" font-size="10" font-weight="700" letter-spacing="1">MAIL AGENT</text>
    <rect x="838" y="576" width="120" height="18" rx="9" fill="#06b6d4" opacity="0.15"/>
    <text x="898" y="589" text-anchor="middle" fill="#06b6d4" font-size="10">{{PRIMARY_MODEL}} (cloud)</text>
    <rect x="963" y="576" width="50" height="18" rx="9" fill="#1e293b"/>
    <text x="988" y="589" text-anchor="middle" fill="#60a5fa" font-size="9">Cloud</text>

    <!-- Domain badge -->
    <rect x="742" y="612" width="125" height="16" rx="5" fill="#06b6d4" opacity="0.08"/>
    <text x="804" y="624" text-anchor="middle" fill="#06b6d4" font-size="9" font-weight="600">EMAIL DOMAIN ONLY</text>

    <text x="742" y="644" fill="#94a3b8" font-size="10.5">GTD triage, follow-up tracking, data</text>
    <text x="742" y="658" fill="#94a3b8" font-size="10.5">extraction. Cannot touch code or infra.</text>

    <text x="742" y="678" fill="#475569" font-size="9" font-weight="600" letter-spacing="1">TOOLS</text>
    <rect x="742" y="684" width="62" height="16" rx="4" fill="#1e293b"/>
    <text x="773" y="696" text-anchor="middle" fill="#64748b" font-size="9">Email CLI</text>
    <rect x="810" y="684" width="42" height="16" rx="4" fill="#1e293b"/>
    <text x="831" y="696" text-anchor="middle" fill="#64748b" font-size="9">Read</text>
    <rect x="858" y="684" width="42" height="16" rx="4" fill="#1e293b"/>
    <text x="879" y="696" text-anchor="middle" fill="#64748b" font-size="9">Write</text>
  </g>

  <!-- ===== TIER 3: WORKERS ===== -->

  <!-- Bolt (worker / local) -->
  <g filter="url(#shadow)">
    <rect x="68" y="782" width="265" height="170" rx="14" fill="url(#cardBg)" stroke="#6366f1" stroke-width="2.5" opacity="0.9"/>
    <polygon points="88,828 106,805 142,805 160,828 142,851 106,851" fill="url(#boltGrad)" opacity="0.9"/>
    <text x="124" y="833" text-anchor="middle" fill="#fff" font-size="10" font-weight="700">BOLT</text>
    <text x="175" y="820" fill="#6366f1" font-size="10" font-weight="700" letter-spacing="1">COMPUTE WORKER</text>

    <!-- Local GPU badge (green) -->
    <rect x="175" y="828" width="95" height="18" rx="9" fill="#22c55e" opacity="0.12"/>
    <circle cx="188" cy="837" r="4" fill="#22c55e" opacity="0.8"/>
    <text x="232" y="841" text-anchor="middle" fill="#22c55e" font-size="9" font-weight="600">LOCAL GPU</text>

    <!-- Security badge -->
    <rect x="88" y="862" width="148" height="15" rx="5" fill="#22c55e" opacity="0.08"/>
    <text x="162" y="873" text-anchor="middle" fill="#22c55e" font-size="8.5" font-weight="600">DATA NEVER LEAVES BOX</text>

    <text x="88" y="896" fill="#94a3b8" font-size="10">Executes compute tasks locally.</text>
    <text x="88" y="910" fill="#64748b" font-size="9.5" font-style="italic">Doesn't know WHY — just the WHAT.</text>

    <rect x="88" y="922" width="75" height="16" rx="5" fill="#ef4444" opacity="0.1"/>
    <text x="125" y="934" text-anchor="middle" fill="#ef4444" font-size="9">No Spawn</text>
    <rect x="170" y="922" width="75" height="16" rx="5" fill="#6366f1" opacity="0.1"/>
    <text x="207" y="934" text-anchor="middle" fill="#6366f1" font-size="9">{{LOCAL_MODEL}}</text>

    <!-- Tier 3 label -->
    <rect x="260" y="788" width="60" height="18" rx="5" fill="#6366f1" opacity="0.1"/>
    <text x="290" y="801" text-anchor="middle" fill="#6366f1" font-size="9" font-weight="700" letter-spacing="1">TIER 3</text>
  </g>

  <!-- Scout (researcher) -->
  <g filter="url(#shadow)">
    <rect x="360" y="782" width="245" height="170" rx="14" fill="url(#cardBg)" stroke="#14b8a6" stroke-width="2.5" opacity="0.9"/>
    <polygon points="378,828 396,805 432,805 450,828 432,851 396,851" fill="url(#scoutGrad)" opacity="0.9"/>
    <text x="414" y="833" text-anchor="middle" fill="#fff" font-size="10" font-weight="700">SCOUT</text>
    <text x="462" y="820" fill="#14b8a6" font-size="10" font-weight="700" letter-spacing="1">RESEARCHER</text>

    <!-- Cloud badge -->
    <rect x="462" y="828" width="55" height="18" rx="9" fill="#3b82f6" opacity="0.12"/>
    <circle cx="474" cy="837" r="4" fill="#60a5fa" opacity="0.8"/>
    <text x="497" y="841" text-anchor="middle" fill="#60a5fa" font-size="9">Cloud</text>

    <!-- Domain badge -->
    <rect x="378" y="862" width="115" height="15" rx="5" fill="#14b8a6" opacity="0.08"/>
    <text x="435" y="873" text-anchor="middle" fill="#14b8a6" font-size="8.5" font-weight="600">WEB READ-ONLY</text>

    <text x="378" y="896" fill="#94a3b8" font-size="10">Search, gather, validate sources.</text>
    <text x="378" y="910" fill="#94a3b8" font-size="10">Returns findings to caller.</text>

    <rect x="378" y="922" width="75" height="16" rx="5" fill="#ef4444" opacity="0.1"/>
    <text x="415" y="934" text-anchor="middle" fill="#ef4444" font-size="9">No Spawn</text>
    <rect x="460" y="922" width="65" height="16" rx="5" fill="#14b8a6" opacity="0.1"/>
    <text x="492" y="934" text-anchor="middle" fill="#14b8a6" font-size="9">Browser</text>
  </g>

  <!-- Courier (files / local) -->
  <g filter="url(#shadow)">
    <rect x="630" y="782" width="245" height="170" rx="14" fill="url(#cardBg)" stroke="#64748b" stroke-width="2.5" opacity="0.9"/>
    <polygon points="648,828 666,805 702,805 720,828 702,851 666,851" fill="url(#courierGrad)" opacity="0.9"/>
    <text x="684" y="833" text-anchor="middle" fill="#fff" font-size="10" font-weight="700">COURIER</text>
    <text x="733" y="820" fill="#94a3b8" font-size="10" font-weight="700" letter-spacing="1">FILE AGENT</text>

    <!-- Local badge -->
    <rect x="733" y="828" width="70" height="18" rx="9" fill="#22c55e" opacity="0.12"/>
    <circle cx="745" cy="837" r="4" fill="#22c55e" opacity="0.8"/>
    <text x="778" y="841" text-anchor="middle" fill="#22c55e" font-size="9">Local</text>

    <!-- Domain badge -->
    <rect x="648" y="862" width="105" height="15" rx="5" fill="#64748b" opacity="0.08"/>
    <text x="700" y="873" text-anchor="middle" fill="#94a3b8" font-size="8.5" font-weight="600">FILE OPS ONLY</text>

    <text x="648" y="896" fill="#94a3b8" font-size="10">Transfers, backups, storage ops.</text>
    <text x="648" y="910" fill="#94a3b8" font-size="10">No code exec, no web, no email.</text>

    <rect x="648" y="922" width="75" height="16" rx="5" fill="#ef4444" opacity="0.1"/>
    <text x="685" y="934" text-anchor="middle" fill="#ef4444" font-size="9">No Spawn</text>
    <rect x="730" y="922" width="60" height="16" rx="5" fill="#64748b" opacity="0.1"/>
    <text x="760" y="934" text-anchor="middle" fill="#94a3b8" font-size="9">rsync/sftp</text>
  </g>

  <!-- Sentinel (tester) -->
  <g filter="url(#shadow)">
    <rect x="898" y="782" width="245" height="170" rx="14" fill="url(#cardBg)" stroke="#ef4444" stroke-width="2.5" opacity="0.9"/>
    <polygon points="916,828 934,805 970,805 988,828 970,851 934,851" fill="url(#sentinelGrad)" opacity="0.9"/>
    <text x="952" y="833" text-anchor="middle" fill="#fff" font-size="10" font-weight="700">SENTINEL</text>
    <text x="1000" y="820" fill="#ef4444" font-size="10" font-weight="700" letter-spacing="1">TESTER</text>

    <!-- Cloud badge -->
    <rect x="1000" y="828" width="55" height="18" rx="9" fill="#3b82f6" opacity="0.12"/>
    <circle cx="1012" cy="837" r="4" fill="#60a5fa" opacity="0.8"/>
    <text x="1035" y="841" text-anchor="middle" fill="#60a5fa" font-size="9">Cloud</text>

    <!-- Domain badge -->
    <rect x="916" y="862" width="175" height="15" rx="5" fill="#ef4444" opacity="0.08"/>
    <text x="1003" y="873" text-anchor="middle" fill="#ef4444" font-size="8.5" font-weight="600">VERIFY ONLY — NO WRITE</text>

    <text x="916" y="896" fill="#94a3b8" font-size="10">Runs tests, validates deployments.</text>
    <text x="916" y="910" fill="#94a3b8" font-size="10">Forge builds. Sentinel verifies.</text>

    <rect x="916" y="922" width="75" height="16" rx="5" fill="#ef4444" opacity="0.1"/>
    <text x="953" y="934" text-anchor="middle" fill="#ef4444" font-size="9">No Spawn</text>
    <rect x="998" y="922" width="80" height="16" rx="5" fill="#ef4444" opacity="0.1"/>
    <text x="1038" y="934" text-anchor="middle" fill="#ef4444" font-size="9">Read + Test</text>
  </g>

  <!-- Extensibility placeholder (dashed) -->
  <rect x="1258" y="526" width="85" height="450" rx="14" fill="none" stroke="#334155" stroke-width="1.5" stroke-dasharray="6,4" opacity="0.6"/>
  <text x="1300" y="640" text-anchor="middle" fill="#475569" font-size="10" font-weight="600" transform="rotate(-90, 1300, 640)">YOUR SPECIALISTS</text>
  <text x="1300" y="790" text-anchor="middle" fill="#334155" font-size="8.5" transform="rotate(-90, 1300, 790)">domain-locked agents</text>

  <!-- ===== LEGEND ===== -->
  <g>
    <rect x="60" y="1090" width="1240" height="68" rx="10" fill="#141b2d" opacity="0.7"/>

    <circle cx="94" cy="1116" r="6" fill="#22c55e" opacity="0.7"/>
    <text x="108" y="1120" fill="#94a3b8" font-size="11">Local GPU</text>

    <circle cx="200" cy="1116" r="6" fill="#3b82f6" opacity="0.7"/>
    <text x="214" y="1120" fill="#94a3b8" font-size="11">Cloud Model</text>

    <line x1="330" y1="1116" x2="360" y2="1116" stroke="#64748b" stroke-width="2"/>
    <text x="368" y="1120" fill="#94a3b8" font-size="11">Spawn / Delegate</text>

    <line x1="500" y1="1116" x2="530" y2="1116" stroke="#10b981" stroke-width="2" stroke-dasharray="3,3"/>
    <text x="538" y="1120" fill="#94a3b8" font-size="11">Escalate (sessions_spawn)</text>

    <line x1="710" y1="1116" x2="740" y2="1116" stroke="#0ea5e9" stroke-width="2" stroke-dasharray="6,3"/>
    <text x="748" y="1120" fill="#94a3b8" font-size="11">SSH (Governor)</text>

    <rect x="88" y="1134" width="100" height="16" rx="5" fill="#ef4444" opacity="0.1"/>
    <text x="138" y="1146" text-anchor="middle" fill="#ef4444" font-size="10">No Spawn = worker</text>

    <text x="680" y="1146" text-anchor="middle" fill="#334155" font-size="10">8 Domain-Locked Agents  ·  Local + Cloud Inference  ·  Security by Isolation</text>

    <rect x="960" y="1134" width="86" height="16" rx="5" fill="#22c55e" opacity="0.08"/>
    <text x="1003" y="1146" text-anchor="middle" fill="#22c55e" font-size="10">Local = air-gapped</text>

    <rect x="1058" y="1134" width="70" height="16" rx="5" fill="#10b981" opacity="0.08"/>
    <text x="1093" y="1146" text-anchor="middle" fill="#10b981" font-size="10">Forge ≠ Sentinel</text>
  </g>
</svg>